<svg xmlns="http://www.w3.org/2000/svg" width="16" height="16" viewBox="0 0 16 16" fill="none">
<path d="M15.148 14.352L11.6281 10.8322C12.6503 9.60623 13.1605 8.03339 13.0526 6.44084C12.9446 4.8483 12.2268 3.35869 11.0486 2.28189C9.87028 1.20509 8.32222 0.624022 6.72642 0.659559C5.13062 0.695095 3.60995 1.3445 2.48077 2.47269C1.35159 3.60087 0.700842 5.12096 0.663895 6.71672C0.626948 8.31249 1.20665 9.86107 2.28241 11.0403C3.35816 12.2195 4.84714 12.9386 6.43959 13.048C8.03203 13.1573 9.60533 12.6485 10.8322 11.6274L14.352 15.148C14.4043 15.2002 14.4663 15.2417 14.5346 15.27C14.6029 15.2983 14.6761 15.3128 14.75 15.3128C14.8239 15.3128 14.8971 15.2983 14.9654 15.27C15.0337 15.2417 15.0957 15.2002 15.148 15.148C15.2002 15.0957 15.2417 15.0337 15.27 14.9654C15.2983 14.8971 15.3128 14.8239 15.3128 14.75C15.3128 14.6761 15.2983 14.6029 15.27 14.5346C15.2417 14.4663 15.2002 14.4043 15.148 14.352ZM1.8125 6.875C1.8125 5.87373 2.10941 4.89495 2.66568 4.06242C3.22196 3.2299 4.01261 2.58103 4.93766 2.19786C5.86271 1.81469 6.88061 1.71444 7.86264 1.90977C8.84467 2.10511 9.74672 2.58727 10.4547 3.29527C11.1627 4.00327 11.6449 4.90532 11.8402 5.88735C12.0356 6.86938 11.9353 7.88728 11.5521 8.81233C11.169 9.73738 10.5201 10.528 9.68757 11.0843C8.85505 11.6406 7.87627 11.9375 6.875 11.9375C5.5328 11.936 4.246 11.4022 3.29692 10.4531C2.34783 9.504 1.81399 8.2172 1.8125 6.875Z" fill="#EEEEEE"/>
</svg>